<svg width="354" height="356" viewBox="0 0 354 356" fill="none" xmlns="http://www.w3.org/2000/svg">
<path d="M300.609 226.055V224.826C300.609 224.592 300.434 224.416 300.2 224.416H297.451C297.217 224.416 297.042 224.592 297.042 224.826V226.055C290.082 226.933 284.701 232.903 284.701 240.103V265.915H285.52V240.103C285.52 233.371 290.55 227.811 297.042 226.933V228.221C291.193 229.099 286.631 234.132 286.631 240.278V241.273V265.974H287.45V241.683H289.965V265.974H290.784V241.683H291.193C291.31 241.683 291.486 241.624 291.544 241.507C292.07 240.746 292.948 240.044 294.059 239.517V265.974H294.878V239.225C295.93 238.873 297.159 238.639 298.387 238.581V265.974H299.206V238.581C300.434 238.639 301.662 238.873 302.715 239.225V265.974H303.534V239.576C303.592 239.576 303.592 239.576 303.592 239.634C303.826 239.751 304.06 239.868 304.294 239.985L304.352 240.044C304.586 240.161 304.762 240.337 304.996 240.454C305.054 240.512 305.054 240.512 305.113 240.571C305.288 240.688 305.464 240.863 305.581 240.981C305.756 241.156 305.931 241.332 306.048 241.566C306.107 241.683 306.282 241.741 306.399 241.741H306.809V266.032H307.628V241.741H310.142V266.032H310.961V241.332V240.337C310.961 234.249 306.458 229.157 300.551 228.279V226.991C307.043 227.869 312.072 233.43 312.072 240.161V265.974H312.891V240.161C313.008 232.903 307.569 226.933 300.609 226.055ZM297.919 226.816V225.996V225.294H299.79V225.996V226.816V228.045C299.498 228.045 299.147 227.986 298.855 227.986C298.562 227.986 298.211 227.986 297.919 228.045V226.816V226.816ZM310.201 240.22V240.746H306.692C306.575 240.571 306.399 240.395 306.224 240.22C306.165 240.161 306.165 240.103 306.107 240.044C305.99 239.927 305.815 239.81 305.698 239.693C305.581 239.576 305.464 239.517 305.347 239.4C305.23 239.342 305.113 239.225 304.937 239.166C304.762 239.049 304.586 238.932 304.411 238.873C304.294 238.815 304.177 238.756 304.06 238.698C303.826 238.581 303.651 238.522 303.417 238.405H303.358C302.013 237.878 300.492 237.586 298.913 237.586C297.334 237.586 295.755 237.878 294.41 238.405C292.948 238.99 291.836 239.751 291.076 240.746H287.567V240.22C287.567 234.542 291.719 229.859 297.1 229.04C297.685 228.923 298.27 228.864 298.913 228.864C299.498 228.864 300.141 228.923 300.726 229.04C306.048 229.859 310.201 234.542 310.201 240.22Z" fill="#EF233C" stroke="#EF233C"/>
<path d="M252.124 226.055V224.826C252.124 224.592 251.949 224.416 251.715 224.416H248.966C248.732 224.416 248.556 224.592 248.556 224.826V226.055C241.597 226.933 236.216 232.903 236.216 240.103V265.915H237.035V240.103C237.035 233.371 242.064 227.811 248.556 226.933V228.221C242.708 229.099 238.146 234.132 238.146 240.278V241.273V265.974H238.965V241.683H241.48V265.974H242.298V241.683H242.708C242.825 241.683 243 241.624 243.059 241.507C243.585 240.746 244.462 240.044 245.574 239.517V265.974H246.392V239.225C247.445 238.873 248.673 238.639 249.902 238.581V265.974H250.72V238.581C251.949 238.639 253.177 238.873 254.229 239.225V265.974H255.048V239.576C255.107 239.576 255.107 239.576 255.107 239.634C255.341 239.751 255.575 239.868 255.809 239.985L255.867 240.044C256.101 240.161 256.276 240.337 256.51 240.454C256.569 240.512 256.569 240.512 256.627 240.571C256.803 240.688 256.978 240.863 257.095 240.981C257.271 241.156 257.446 241.332 257.563 241.566C257.622 241.683 257.797 241.741 257.914 241.741H258.323V266.032H259.142V241.741H261.657V266.032H262.476V241.332V240.337C262.476 234.249 257.973 229.157 252.065 228.279V226.991C258.557 227.869 263.587 233.43 263.587 240.161V265.974H264.406V240.161C264.464 232.903 259.084 226.933 252.124 226.055ZM249.375 226.816V225.996V225.294H251.247V225.996V226.816V228.045C250.954 228.045 250.603 227.986 250.311 227.986C250.018 227.986 249.668 227.986 249.375 228.045V226.816V226.816ZM261.657 240.22V240.746H258.148C258.031 240.571 257.856 240.395 257.68 240.22C257.622 240.161 257.622 240.103 257.563 240.044C257.446 239.927 257.271 239.81 257.154 239.693C257.037 239.576 256.92 239.517 256.803 239.4C256.686 239.342 256.569 239.225 256.393 239.166C256.218 239.049 256.043 238.932 255.867 238.873C255.75 238.815 255.633 238.756 255.516 238.698C255.282 238.581 255.107 238.522 254.873 238.405H254.814C253.469 237.878 251.949 237.586 250.369 237.586C248.79 237.586 247.211 237.878 245.866 238.405C244.404 238.99 243.293 239.751 242.532 240.746H239.023V240.22C239.023 234.542 243.176 229.859 248.556 229.04C249.141 228.923 249.726 228.864 250.369 228.864C250.954 228.864 251.598 228.923 252.182 229.04C257.505 229.859 261.657 234.542 261.657 240.22Z" fill="#EF233C" stroke="#EF233C"/>
<path d="M334.823 240.103V251.517C335.116 250.931 335.408 250.287 335.642 249.702V240.044C335.642 234.425 339.093 229.684 344.005 227.694C344.122 227.343 344.181 226.992 344.298 226.699C338.8 228.689 334.823 233.899 334.823 240.103Z" fill="#EF233C" stroke="#EF233C"/>
<path d="M23.2112 200.828V206.681H4.84669C4.90517 206.974 4.96366 207.267 5.02215 207.501H23.2697V259.711C23.5621 260.238 23.7961 260.765 24.0885 261.292V207.501V206.681V202.935H34.265V206.681V207.501V265.857H35.0838V207.501H71.8713V265.857H72.6901V207.501V206.681V202.935H82.8667V206.681V207.501V265.857H83.6855V207.501H122.228V265.857H123.105V207.501H136.966V265.857H137.785V207.501H144.101V265.857H144.92V207.501V206.681V204.457C144.92 188.244 157.085 174.84 172.759 172.85V176.947C159.132 178.879 148.663 190.585 148.663 204.75V206.681V207.033V207.501V265.857H149.482V207.501H156.5V265.857H157.319V207.501V207.442H158.84C158.957 207.442 159.132 207.384 159.191 207.267C159.308 207.091 159.483 206.857 159.658 206.681C161.121 204.808 163.343 203.228 166.092 202.116V206.681V207.501V265.857H166.911V207.501V206.681V201.765C169.718 200.711 172.935 200.126 176.268 200.067V206.681V207.501V265.857H177.087V207.501V206.681V200.067C184.164 200.184 190.597 202.701 193.697 206.681C193.873 206.857 193.99 207.091 194.165 207.267C194.224 207.384 194.399 207.442 194.516 207.442H203.874V207.501V265.857H204.692V207.501V207.033V206.681V204.75C204.692 190.585 194.224 178.879 180.596 176.947V172.85C196.271 174.782 208.436 188.244 208.436 204.457V206.681V207.501V265.857H209.254V207.501H214.869V265.857H215.688V207.501H229.549V265.857H230.368V207.501H268.383V265.857H269.202V207.501V206.681V202.935H279.379V206.681V207.501V265.857H280.198V207.501H317.394V265.857H318.213V207.501V206.681V202.935H328.799V206.681V207.501V263.048C329.092 262.579 329.384 262.053 329.618 261.584V207.501H348.86C348.918 207.208 348.977 206.915 349.035 206.681H329.676V200.828H349.971C350.03 200.536 350.03 200.243 350.088 200.009H329.676V197.375C329.676 197.141 329.501 196.965 329.267 196.965H318.213C317.979 196.965 317.804 197.141 317.804 197.375V200.009H280.607V197.375C280.607 197.141 280.432 196.965 280.198 196.965H269.144C268.91 196.965 268.734 197.141 268.734 197.375V200.009H263.529C245.457 200.009 230.777 185.317 230.777 167.231C230.777 167.172 230.777 167.114 230.719 167.055V158.1V155.642V139.604C230.719 139.37 230.543 139.194 230.309 139.194H215.571H209.137C200.072 139.194 192.761 131.819 192.761 122.805V120.64H195.452H198.844C199.078 120.64 199.253 120.464 199.253 120.23C199.253 107.645 189.018 97.4609 176.502 97.4609C163.928 97.4609 153.751 107.704 153.751 120.23C153.751 120.464 153.927 120.64 154.161 120.64H157.553H160.243V122.805C160.243 131.878 152.874 139.194 143.867 139.194H137.492H122.754H122.695C122.462 139.194 122.286 139.37 122.286 139.604V167.289C122.286 185.376 107.606 200.067 89.534 200.067H83.744V197.433C83.744 197.199 83.5685 197.024 83.3346 197.024H72.2807C72.0468 197.024 71.8713 197.199 71.8713 197.433V200.067H35.0838V197.433C35.0838 197.199 34.9084 197.024 34.6744 197.024H23.6206C23.3867 197.024 23.2112 197.199 23.2112 197.433V200.067H3.79395C3.85243 200.36 3.85243 200.653 3.91092 200.887H23.2112V200.828ZM318.623 200.828V200.009V197.785H328.799V200.009V200.828V202.057H318.623V200.828ZM280.607 200.828H317.804V206.681H280.607V200.828ZM269.553 200.828V200.009V197.785H279.73V200.009V200.828V202.057H269.553V200.828ZM230.719 200.594C230.777 200.536 230.777 200.477 230.777 200.418V174.723C234.169 189.649 247.563 200.887 263.529 200.887H268.734V206.74H230.719V200.594ZM215.98 139.897H229.841V155.115H215.98V139.897ZM215.98 155.993H229.841V157.632H215.98V155.993ZM215.98 158.451H229.841V206.681H215.98V158.451ZM204.108 204.75V206.623H194.984C191.767 202.116 184.69 199.248 176.912 199.248C173.286 199.248 169.718 199.892 166.56 201.121C163.168 202.467 160.477 204.34 158.84 206.681H149.716V204.808C149.716 191.112 159.834 179.757 172.993 177.884C173.286 177.825 173.578 177.825 173.812 177.767C174.806 177.65 175.859 177.591 176.912 177.591C177.964 177.591 179.017 177.65 180.011 177.767C180.304 177.825 180.596 177.825 180.83 177.884C193.99 179.698 204.108 191.053 204.108 204.75ZM173.754 176.83V172.733V171.913V169.806H179.953V171.913V172.733V176.83C178.959 176.713 177.906 176.655 176.853 176.655C175.801 176.655 174.806 176.713 173.754 176.83ZM157.144 119.645H154.57C154.804 107.763 164.513 98.1048 176.502 98.1048C188.433 98.1048 198.201 107.704 198.435 119.645H195.861C195.627 109.167 187.03 100.68 176.502 100.68C165.975 100.739 157.378 109.167 157.144 119.645ZM157.962 119.645C158.196 109.636 166.384 101.558 176.444 101.558C186.503 101.558 194.75 109.636 194.925 119.645H186.094C186.269 118.942 186.328 118.24 186.328 117.537C186.328 112.152 181.942 107.704 176.502 107.704C171.122 107.704 166.677 112.094 166.677 117.537C166.677 118.24 166.735 118.942 166.911 119.645H157.962ZM185.451 117.537C185.451 122.513 181.415 126.493 176.502 126.493C171.531 126.493 167.554 122.454 167.554 117.537C167.554 112.562 171.59 108.582 176.502 108.582C181.415 108.582 185.451 112.621 185.451 117.537ZM161.062 122.63V120.522H167.145C168.431 124.444 172.116 127.312 176.502 127.312C180.83 127.312 184.573 124.444 185.86 120.522H191.943V122.63C191.943 130.297 196.972 136.794 203.874 139.019H149.248C156.091 136.794 161.062 130.297 161.062 122.63ZM137.902 139.897H215.161V155.115H137.902V139.897ZM137.902 155.993H215.161V157.632H137.902V155.993ZM137.902 158.451H215.161V206.681H209.547V204.457C209.547 187.776 196.972 173.962 180.83 172.031V169.397C180.83 169.162 180.655 168.987 180.421 168.987H173.344C173.11 168.987 172.935 169.162 172.935 169.397V172.031C156.793 173.962 144.218 187.776 144.218 204.457V206.681H137.902V158.451V158.451ZM123.163 139.897H137.024V155.115H123.163V139.897ZM123.163 155.993H137.024V157.632H123.163V155.993ZM123.163 158.451H137.024V206.681H123.163V158.451ZM83.744 200.828H89.4756C105.442 200.828 118.835 189.649 122.228 174.664V200.36V206.623H83.744V200.828ZM72.6901 200.828V200.009V197.785H82.8667V200.009V200.828V202.057H72.6901V200.828ZM35.0838 200.828H71.8713V206.681H35.0838V200.828ZM24.03 200.828V200.009V197.785H34.2065V200.009V200.828V202.057H24.03V200.828Z" fill="#EF233C" stroke="#EF233C"/>
<path d="M336.753 240.22V241.215V247.244C337.045 246.6 337.338 246.015 337.572 245.371V241.625H339.092C339.209 241.332 339.326 241.039 339.443 240.805H337.572V240.278C337.572 236.123 339.794 232.552 343.128 230.562C343.245 230.153 343.362 229.801 343.537 229.392C339.56 231.382 336.753 235.479 336.753 240.22Z" fill="#EF233C" stroke="#EF233C"/>
<path d="M17.0696 240.22C17.0696 235.479 14.3208 231.382 10.3438 229.392C10.4607 229.801 10.6362 230.153 10.7531 230.562C14.0283 232.552 16.2508 236.123 16.2508 240.22V240.747H14.4377C14.5547 241.039 14.6717 241.332 14.7887 241.566H16.2508V245.195C16.5432 245.839 16.8357 246.483 17.0696 247.127V241.156V240.22Z" fill="#EF233C" stroke="#EF233C"/>
<path d="M9.58398 226.758C9.70096 227.109 9.75944 227.46 9.87642 227.753C14.7308 229.743 18.1815 234.484 18.1815 240.045V249.585C18.4739 250.171 18.7079 250.814 19.0003 251.4V240.045C19.0003 233.957 15.0817 228.689 9.58398 226.758Z" fill="#EF233C" stroke="#EF233C"/>
<path d="M105.267 226.055V224.826C105.267 224.592 105.091 224.416 104.857 224.416H102.108C101.874 224.416 101.699 224.592 101.699 224.826V226.055C94.7391 226.933 89.3584 232.903 89.3584 240.103V265.915H90.1772V240.103C90.1772 233.371 95.207 227.811 101.699 226.933V228.221C95.8503 229.099 91.2884 234.132 91.2884 240.278V241.273V265.974H92.1072V241.683H94.6221V265.974H95.4409V241.683H95.8503C95.9673 241.683 96.1428 241.624 96.2012 241.507C96.7276 240.746 97.6049 240.044 98.7161 239.517V265.974H99.5349V239.225C100.588 238.873 101.816 238.639 103.044 238.581V265.974H103.863V238.581C105.091 238.639 106.319 238.873 107.372 239.225V265.974H108.191V239.576C108.249 239.576 108.249 239.576 108.249 239.634C108.483 239.751 108.717 239.868 108.951 239.985L109.01 240.044C109.244 240.161 109.419 240.337 109.653 240.454C109.711 240.512 109.711 240.512 109.77 240.571C109.945 240.688 110.121 240.863 110.238 240.981C110.413 241.156 110.589 241.332 110.706 241.566C110.764 241.683 110.94 241.741 111.057 241.741H111.466V266.032H112.285V241.741H114.8V266.032H115.619V241.332V240.337C115.619 234.249 111.115 229.157 105.208 228.279V226.991C111.7 227.869 116.73 233.43 116.73 240.161V265.974H117.549V240.161C117.666 232.903 112.226 226.933 105.267 226.055ZM102.576 226.816V225.996V225.294H104.448V225.996V226.816V228.045C104.155 228.045 103.804 227.986 103.512 227.986C103.22 227.986 102.869 227.986 102.576 228.045V226.816ZM114.858 240.22V240.746H111.349C111.232 240.571 111.057 240.395 110.881 240.22C110.823 240.161 110.823 240.103 110.764 240.044C110.647 239.927 110.472 239.81 110.355 239.693C110.238 239.576 110.121 239.517 110.004 239.4C109.887 239.342 109.77 239.225 109.594 239.166C109.419 239.049 109.244 238.932 109.068 238.873C108.951 238.815 108.834 238.756 108.717 238.698C108.483 238.581 108.308 238.522 108.074 238.405H108.015C106.67 237.878 105.15 237.586 103.57 237.586C101.991 237.586 100.412 237.878 99.067 238.405C97.6049 238.99 96.4937 239.751 95.7333 240.746H92.2242V240.22C92.2242 234.542 96.3767 229.859 101.757 229.04C102.342 228.923 102.927 228.864 103.57 228.864C104.155 228.864 104.799 228.923 105.384 229.04C110.706 229.859 114.858 234.542 114.858 240.22Z" fill="#EF233C" stroke="#EF233C"/>
<path d="M55.2031 226.055V224.826C55.2031 224.592 55.0276 224.416 54.7937 224.416H52.0448C51.8109 224.416 51.6354 224.592 51.6354 224.826V226.055C44.6756 226.933 39.2949 232.903 39.2949 240.103V265.915H40.1137V240.103C40.1137 233.371 45.1435 227.811 51.6354 226.933V228.221C45.7868 229.099 41.225 234.132 41.225 240.278V241.273V265.974H42.0438V241.683H44.5586V265.974H45.3774V241.683H45.7868C45.9038 241.683 46.0793 241.624 46.1378 241.507C46.6641 240.746 47.5414 240.044 48.6526 239.517V265.974H49.4714V239.225C50.5242 238.873 51.7524 238.639 52.9806 238.581V265.974H53.7994V238.581C55.0276 238.639 56.2558 238.873 57.3085 239.225V265.974H58.1273V239.576C58.1858 239.576 58.1858 239.576 58.1858 239.634C58.4198 239.751 58.6537 239.868 58.8877 239.985C58.8877 239.985 58.9461 239.985 58.9461 240.044C59.1801 240.161 59.3555 240.337 59.5895 240.454C59.648 240.512 59.648 240.512 59.7065 240.571C59.8819 240.688 60.0574 240.863 60.1743 240.981C60.3498 241.156 60.5253 241.332 60.6422 241.566C60.7007 241.683 60.8762 241.741 60.9931 241.741H61.4026V266.032H62.2213V241.741H64.7362V266.032H65.555V241.332V240.337C65.555 234.249 61.0516 229.157 55.1446 228.279V226.991C61.6365 227.869 66.6663 233.43 66.6663 240.161V265.974H67.4851V240.161C67.5436 232.903 62.1044 226.933 55.2031 226.055ZM52.4542 226.816V225.996V225.294H54.3258V225.996V226.816V228.045C54.0333 228.045 53.6824 227.986 53.39 227.986C53.0976 227.986 52.7467 227.986 52.4542 228.045V226.816V226.816ZM64.7362 240.22V240.746H61.2271C61.1101 240.571 60.9347 240.395 60.7592 240.22C60.7007 240.161 60.7007 240.103 60.6422 240.044C60.5253 239.927 60.3498 239.81 60.2328 239.693C60.1159 239.576 59.9989 239.517 59.8819 239.4C59.7649 239.342 59.648 239.225 59.4725 239.166C59.2971 239.049 59.1216 238.932 58.9461 238.873C58.8292 238.815 58.7122 238.756 58.5952 238.698C58.3613 238.581 58.1858 238.522 57.9519 238.405H57.8934C56.5482 237.878 55.0276 237.586 53.4485 237.586C51.8694 237.586 50.2903 237.878 48.9451 238.405C47.4829 238.99 46.3717 239.751 45.6114 240.746H42.1022V240.22C42.1022 234.542 46.2547 229.859 51.6354 229.04C52.2203 228.923 52.8051 228.864 53.4485 228.864C54.0918 228.864 54.6767 228.923 55.2615 229.04C60.5838 229.859 64.7362 234.542 64.7362 240.22Z" fill="#EF233C" stroke="#EF233C"/>
<path d="M176.502 116.132C176.736 116.132 176.912 115.956 176.912 115.722V110.22C176.912 109.986 176.736 109.811 176.502 109.811C176.268 109.811 176.093 109.986 176.093 110.22V115.722C176.093 115.898 176.268 116.132 176.502 116.132Z" fill="#EF233C" stroke="#EF233C"/>
<path d="M181.882 116.951H178.197C177.964 116.951 177.788 117.127 177.788 117.361C177.788 117.595 177.964 117.771 178.197 117.771H181.882C182.116 117.771 182.291 117.595 182.291 117.361C182.291 117.127 182.116 116.951 181.882 116.951Z" fill="#EF233C" stroke="#EF233C"/>
<path d="M176.502 116.951C176.268 116.951 176.093 117.127 176.093 117.361C176.093 117.595 176.268 117.771 176.502 117.771C176.736 117.771 176.912 117.595 176.912 117.361C176.912 117.127 176.736 116.951 176.502 116.951Z" fill="#EF233C" stroke="#EF233C"/>
<path d="M315.932 284.294H313.3H40.6397H38.0078L39.6454 286.343C43.9734 291.727 48.5937 296.82 53.3896 301.561H54.8517C49.705 296.586 44.8506 291.259 40.4057 285.699L40.0548 285.289H313.768L313.417 285.699C308.914 291.259 304.059 296.586 298.971 301.561H300.433C305.288 296.761 309.85 291.727 314.177 286.343L315.932 284.294Z" fill="#EF233C" stroke="#EF233C"/>
<path d="M176.912 1.99504C273.413 1.99504 351.609 80.2521 351.609 176.771C351.609 209.315 342.719 239.751 327.22 265.857H26.6621C11.2219 239.81 2.27355 209.315 2.27355 176.771C2.27355 80.2521 80.469 1.99504 176.912 1.99504ZM176.912 1C80.0596 1 1.2793 79.8424 1.2793 176.771C1.2793 208.32 9.75973 239.283 25.8433 266.383L26.1357 266.852H26.7206H327.22H327.805L328.098 266.383C344.123 239.342 352.662 208.32 352.662 176.771C352.603 79.8424 273.764 1 176.912 1Z" fill="#EF233C" stroke="#EF233C"/>
<path d="M171.122 147.27C171.356 146.919 171.473 146.51 171.473 146.158C171.473 145.749 171.297 145.573 170.888 145.573C170.128 145.573 169.543 146.1 169.543 146.744C169.543 146.802 169.484 146.919 169.426 146.919C169.309 146.919 169.309 146.861 169.309 146.744C169.309 145.924 170.069 145.339 171.005 145.339C172.058 145.339 172.876 145.924 172.876 146.861C172.876 147.387 172.701 147.797 172.409 148.265L170.888 150.724H172.935C172.993 150.724 173.052 150.724 173.052 150.841C173.052 150.899 172.993 150.958 172.935 150.958H169.075C169.016 150.958 168.958 150.899 168.958 150.841C168.958 150.782 168.958 150.782 169.016 150.665L171.122 147.27Z" fill="#EF233C"/>
<path d="M178.024 148.207C178.024 149.904 177.088 151.075 176.036 151.075C174.866 151.075 173.638 150.08 173.638 148.207C173.638 146.334 174.866 145.339 176.036 145.339C177.088 145.397 178.024 146.51 178.024 148.207ZM177.732 148.207C177.732 146.685 176.971 145.573 176.094 145.573C175.743 145.573 175.392 145.983 175.392 148.207C175.392 150.431 175.743 150.841 176.094 150.841C176.971 150.841 177.732 149.787 177.732 148.207Z" fill="#EF233C"/>
<path d="M180.831 145.456C180.889 145.397 181.006 145.339 181.123 145.339C181.24 145.339 181.299 145.397 181.299 145.514V150.724H182.059C182.117 150.724 182.176 150.782 182.176 150.841C182.176 150.899 182.117 150.958 182.059 150.958H178.842C178.784 150.958 178.725 150.899 178.725 150.841C178.725 150.782 178.784 150.724 178.842 150.724H179.603V146.51C179.31 146.685 179.018 146.802 178.842 146.919C178.784 146.919 178.725 146.919 178.667 146.919C178.608 146.861 178.667 146.802 178.725 146.744C179.31 146.451 180.246 145.924 180.831 145.456Z" fill="#EF233C"/>
<path d="M185.276 148.734C185.042 149.026 184.633 149.261 184.165 149.261C183.346 149.261 182.586 148.617 182.586 147.563C182.586 146.275 183.58 145.397 184.867 145.397C186.037 145.397 187.089 146.158 187.089 147.797C187.089 149.904 185.218 151.075 183.522 151.075C183.463 151.075 183.405 151.075 183.405 150.958C183.405 150.9 183.463 150.841 183.522 150.841C184.633 150.782 185.159 150.139 185.276 148.734ZM185.335 147.329C185.335 145.983 185.159 145.573 184.633 145.573C183.697 145.573 182.878 146.393 182.878 147.563C182.878 148.5 183.463 149.026 184.165 149.026C185.159 149.026 185.335 148.266 185.335 147.329Z" fill="#EF233C"/>
<path d="M176.913 298.342C204.207 298.342 226.333 276.198 226.333 248.882C226.333 221.567 204.207 199.423 176.913 199.423C149.618 199.423 127.492 221.567 127.492 248.882C127.492 276.198 149.618 298.342 176.913 298.342Z" fill="white"/>
<path d="M133.984 248.883C133.984 265.916 143.869 280.607 158.198 287.572L137.727 231.382C135.33 236.767 133.984 242.678 133.984 248.883Z" fill="#0E1344"/>
<path d="M205.921 246.717C205.921 241.39 203.991 237.703 202.354 234.893C200.19 231.381 198.143 228.338 198.143 224.826C198.143 220.904 201.125 217.217 205.336 217.217C205.512 217.217 205.687 217.217 205.921 217.275C198.26 210.251 188.083 205.979 176.912 205.979C161.94 205.979 148.722 213.705 141.061 225.353C142.055 225.411 142.991 225.411 143.809 225.411C148.313 225.411 155.273 224.884 155.273 224.884C157.612 224.767 157.846 228.162 155.565 228.396C155.565 228.396 153.226 228.689 150.652 228.806L166.268 275.339L175.684 247.126L169.017 228.806C166.677 228.689 164.513 228.396 164.513 228.396C162.174 228.279 162.466 224.709 164.806 224.884C164.806 224.884 171.883 225.411 176.094 225.411C180.597 225.411 187.557 224.884 187.557 224.884C189.896 224.767 190.13 228.162 187.849 228.396C187.849 228.396 185.51 228.689 182.936 228.806L198.377 274.929L202.646 260.589C204.518 254.677 205.921 250.404 205.921 246.717Z" fill="#0E1344"/>
<path d="M177.673 252.688L164.806 290.148C168.666 291.26 172.701 291.904 176.912 291.904C181.884 291.904 186.679 291.026 191.183 289.445C191.066 289.27 190.949 289.094 190.89 288.86L177.673 252.688Z" fill="#0E1344"/>
<path d="M214.636 228.279C214.812 229.626 214.929 231.089 214.929 232.669C214.929 237.001 214.11 241.917 211.653 248.063L198.494 286.05C211.244 278.617 219.841 264.745 219.841 248.883C219.9 241.449 217.97 234.425 214.636 228.279Z" fill="#0E1344"/>
<path d="M176.912 198.838C149.307 198.838 126.849 221.314 126.849 248.941C126.849 276.568 149.307 299.044 176.912 299.044C204.518 299.044 226.976 276.568 226.976 248.941C226.976 221.256 204.518 198.838 176.912 198.838ZM176.912 296.703C150.594 296.703 129.13 275.281 129.13 248.883C129.13 222.543 150.535 201.062 176.912 201.062C203.231 201.062 224.695 222.485 224.695 248.883C224.695 275.281 203.29 296.703 176.912 296.703Z" fill="#0E1344"/>
<path d="M36.8971 130.765C36.3707 130.297 36.1953 129.653 36.3707 129.009C36.5462 128.365 36.8386 128.131 37.7159 128.014L58.3614 126.258L42.9211 114.552L41.6344 118.298C41.459 118.708 41.1665 119 40.7571 118.825C40.3477 118.708 40.2308 118.298 40.4062 117.83L43.3305 109.46C43.506 109.05 43.8569 108.757 44.2078 108.933C44.6172 109.108 44.7342 109.46 44.5587 109.928L43.506 112.972L68.4209 131.936C69.0058 132.346 69.2397 133.048 69.0643 133.575C68.8888 134.16 68.3039 134.511 67.4851 134.57L46.1378 136.794L61.7535 151.017C62.3384 151.603 62.5139 152.246 62.3384 152.773C62.1629 153.3 61.6366 153.651 60.8178 153.651L29.0015 154.295L27.9488 157.339C27.7733 157.807 27.4809 158.041 27.0715 157.865C26.6621 157.748 26.5451 157.339 26.7206 156.87L32.92 139.194C33.0955 138.784 33.4464 138.491 33.7973 138.667C34.2652 138.843 34.3237 139.194 34.1483 139.662L32.5691 144.169L51.694 144.052L36.8971 130.765Z" fill="white"/>
<path d="M88.8907 79.9593C96.2014 86.749 96.2014 96.4068 90.7038 102.318C85.0306 108.464 75.9069 111.566 67.134 103.372C58.7706 95.5873 60.8176 85.871 66.4322 79.7837C71.9883 73.872 81.5215 73.1696 88.8907 79.9593ZM87.721 81.247C81.1706 75.1597 72.5732 75.2182 67.6019 80.5446C65.4379 82.8859 65.7889 86.5149 74.9126 95.002C84.5628 103.957 87.721 103.548 89.885 101.206C94.8562 95.88 94.2714 87.2758 87.721 81.247Z" fill="white"/>
<path d="M108.367 85.0525C107.958 85.2866 107.548 85.2281 107.314 84.8184C107.08 84.4087 107.314 84.0575 107.724 83.8233L111.116 82.0674L97.7226 56.3719L94.3305 58.1279C93.9211 58.362 93.5117 58.3035 93.2777 57.8937C93.1023 57.5425 93.2777 57.1328 93.6871 56.8987L107.724 49.5822C115.151 45.7191 121.819 46.5386 125.328 53.3283C128.077 58.6547 126.381 63.864 122.521 67.2588C123.749 67.2588 124.918 67.5515 125.971 68.0197L129.012 69.366C131.001 70.244 132.697 70.6537 134.744 69.6001C135.621 69.1318 136.031 69.1904 136.265 69.6586C136.499 70.0684 136.323 70.4781 135.387 70.9463C132.931 72.234 130.942 72.1755 128.486 71.0049L125.328 69.5416C123.339 68.6636 121.526 68.4295 119.538 69.483C119.187 69.6586 118.719 69.7172 118.485 69.2489C118.251 68.7807 118.544 68.4295 118.953 68.1953C124.685 65.2102 126.732 59.5912 123.866 54.0892C120.649 47.8848 115.093 47.2995 108.426 50.8114L106.846 51.6308L120.24 77.3263L123.632 75.5704C124.041 75.3362 124.451 75.3948 124.685 75.8045C124.86 76.1557 124.685 76.5654 124.275 76.7995L108.367 85.0525Z" fill="white"/>
<path d="M144.453 66.4388L148.254 65.9121L144.277 37.1729L140.476 37.6997C140.008 37.7582 139.657 37.5826 139.598 37.1144C139.54 36.7632 139.832 36.412 140.3 36.3535L157.904 33.9537C166.619 32.7245 173.812 37.6997 175.158 47.3575C176.503 57.0152 170.303 64.2146 162.232 65.3267L144.628 67.7265C144.16 67.7851 143.809 67.5509 143.751 67.1412C143.692 66.7315 143.985 66.4974 144.453 66.4388ZM173.461 47.5916C172.292 38.9874 166.326 34.1878 158.372 35.2414L154.337 35.8267L158.314 64.5658L162.349 63.9805C169.66 62.9269 174.631 56.1372 173.461 47.5916Z" fill="white"/>
<path d="M189.194 49.1722C191.533 37.1731 201.066 33.8368 209.43 35.4757C214.752 36.5293 216.214 40.0997 216.214 40.0997L216.565 38.2852C216.624 37.817 216.975 37.5243 217.443 37.6414C217.91 37.7585 218.144 38.1096 218.027 38.5779L216.273 47.7089C216.156 48.1771 215.863 48.4698 215.396 48.3527C214.928 48.2356 214.694 47.8845 214.811 47.4162L215.688 42.8507C215.922 41.5045 213.816 37.7585 209.43 36.8805C205.979 36.2366 202.88 38.4023 200.482 50.6355C197.967 63.571 200.131 66.0879 203.581 66.7317C208.787 67.7267 212.471 64.2734 213.816 61.5809C214.05 61.1712 214.284 60.82 214.752 60.9371C215.22 61.0541 215.396 61.3468 215.337 61.815C215.279 62.1077 215.162 62.4589 215.045 62.693C213.349 65.9123 209.079 69.2486 202.587 67.9609C196.505 66.7902 186.737 61.9906 189.194 49.1722Z" fill="white"/>
<path d="M253.294 53.5039L249.2 86.1646L251.715 87.5694C252.124 87.8035 252.3 88.2133 252.066 88.5645C251.832 88.9156 251.422 88.9742 251.013 88.74L235.514 79.8432C235.105 79.6091 234.929 79.1994 235.163 78.8482C235.397 78.497 235.807 78.4384 236.216 78.6726L240.076 80.8968L240.895 75.6874L230.484 69.6587L226.332 72.9365L229.783 74.9265C230.192 75.1607 230.367 75.5704 230.134 75.9216C229.9 76.2728 229.49 76.3313 229.081 76.0972L221.712 71.8243C221.302 71.5902 221.127 71.1805 221.361 70.8293C221.595 70.4781 222.004 70.4196 222.413 70.6537L224.928 72.0585L251.071 52.0406C251.715 51.5723 252.241 51.6309 252.768 51.9235C253.06 52.2747 253.411 52.86 253.294 53.5039ZM231.596 68.8392L241.129 74.3412L243 60.235L231.596 68.8392Z" fill="white"/>
<path d="M274.934 114.669C275.285 114.435 275.694 114.552 275.928 114.903L278.209 117.947L298.328 102.787L270.43 109.108C270.138 109.167 269.787 108.991 269.67 108.757C269.494 108.523 269.378 108.23 269.495 107.879L282.537 82.2424L262.652 97.2265L264.991 100.387C265.284 100.738 265.284 101.207 264.933 101.441C264.582 101.675 264.172 101.558 263.938 101.207L258.265 93.6561C257.973 93.3049 257.973 92.8366 258.324 92.6025C258.675 92.3684 259.084 92.4854 259.318 92.8366L261.657 95.8803L284.759 78.4378L282.42 75.3941C282.127 75.0429 282.127 74.5747 282.478 74.3406C282.829 74.1064 283.239 74.2235 283.473 74.5747L291.368 85.0519C291.719 85.5201 291.778 85.8128 291.602 86.281L282.595 104.66L302.13 100.27C302.539 100.212 302.89 100.27 303.124 100.563L310.844 110.864C311.136 111.216 311.136 111.684 310.785 111.918C310.435 112.152 310.025 112.035 309.791 111.684L307.452 108.64L284.35 126.024L286.689 129.068C286.982 129.419 286.982 129.887 286.631 130.121C286.28 130.356 285.871 130.238 285.637 129.887L274.875 115.723C274.583 115.313 274.583 114.903 274.934 114.669Z" fill="white"/>
<path d="M301.838 152.129C302.364 152.012 302.656 152.363 302.773 152.773C304.411 158.977 309.85 162.079 315.699 160.499C321.664 158.919 323.711 154.47 322.132 148.5L321.138 144.812L293.182 152.305L294.176 156.051C294.293 156.519 294.117 156.87 293.708 156.987C293.299 157.104 292.948 156.812 292.831 156.402L288.21 139.135C288.093 138.667 288.269 138.315 288.678 138.198C289.088 138.081 289.439 138.374 289.556 138.784L290.55 142.471L318.506 134.979L317.512 131.292C317.395 130.823 317.57 130.472 317.98 130.355C318.389 130.238 318.74 130.531 318.857 130.94L323.536 148.383C325.232 154.763 322.659 160.382 316.167 162.138C309.616 163.894 303.3 160.148 301.37 153.124C301.253 152.714 301.311 152.305 301.838 152.129Z" fill="white"/>
<path d="M130.064 325.208V337.558L133.34 335.626C133.749 335.451 134.158 335.451 134.334 335.802C134.509 336.153 134.392 336.504 133.983 336.738L130.064 339.021V353.127H140.709V346.923C140.709 346.455 141.001 346.045 141.469 346.045C141.937 346.045 142.229 346.396 142.229 346.923V353.713C142.229 354.181 141.996 354.474 141.469 354.474H116.554C116.086 354.474 115.794 354.239 115.794 353.83C115.794 353.42 116.145 353.186 116.554 353.186H120.239V344.757L117.432 346.396C117.022 346.63 116.613 346.572 116.437 346.221C116.262 345.869 116.379 345.46 116.788 345.284L120.239 343.294V325.208H116.554C116.086 325.208 115.794 324.973 115.794 324.564C115.794 324.154 116.145 323.92 116.554 323.92H133.749C134.217 323.92 134.509 324.154 134.509 324.564C134.509 324.973 134.158 325.208 133.749 325.208H130.064Z" fill="white"/>
<path d="M175.098 339.08C175.098 348.737 168.314 355.059 160.477 355.059C152.406 355.059 144.276 350.669 144.276 339.08C144.276 328.017 152.523 323.1 160.477 323.1C168.372 323.1 175.098 329.422 175.098 339.08ZM173.461 339.08C173.461 330.475 167.729 324.388 160.769 324.388C157.728 324.388 155.33 327.022 155.33 339.08C155.33 351.781 157.67 353.771 160.769 353.771C167.788 353.771 173.461 347.684 173.461 339.08ZM163.869 312.857C164.22 312.389 164.746 312.331 165.214 312.623C165.682 312.974 165.799 313.384 165.39 313.911L160.594 320.584C160.301 320.993 159.834 321.052 159.541 320.935C159.19 320.759 159.073 320.349 159.424 319.764L163.869 312.857Z" fill="white"/>
<path d="M178.549 353.186H182.234V325.208H178.549C178.082 325.208 177.789 325.032 177.789 324.564C177.789 324.213 178.14 323.92 178.549 323.92H195.686C204.225 323.92 210.424 329.598 210.424 339.021C210.424 348.386 203.581 354.532 195.686 354.532H178.549C178.082 354.532 177.789 354.239 177.789 353.888C177.789 353.361 178.082 353.186 178.549 353.186ZM208.787 338.963C208.787 330.534 203.757 325.149 195.978 325.149H192.001V353.127H195.978C203.113 353.186 208.787 347.333 208.787 338.963Z" fill="white"/>
<path d="M239.433 325.208L224.052 353.186H238.322V346.981C238.322 346.513 238.556 346.22 239.082 346.22C239.55 346.22 239.843 346.572 239.843 346.981V353.713C239.843 354.181 239.55 354.473 239.082 354.473H214.05C213.641 354.473 213.349 354.239 213.349 353.771C213.349 353.596 213.407 353.42 213.524 353.244L229.023 325.149H216.624V331.705C216.624 332.173 216.39 332.465 215.864 332.465C215.396 332.465 215.103 332.114 215.103 331.705V324.681C215.103 324.213 215.454 323.92 215.864 323.92H238.965C239.375 323.92 239.667 324.154 239.667 324.622C239.667 324.739 239.609 324.973 239.433 325.208ZM231.07 312.857C231.421 312.389 231.947 312.331 232.415 312.623C232.883 312.974 233 313.384 232.59 313.911L227.795 320.584C227.502 320.993 227.034 321.052 226.742 320.935C226.391 320.759 226.274 320.349 226.625 319.764L231.07 312.857Z" fill="white"/>
</svg>
