<svg width="597" height="600" viewBox="0 0 597 600" fill="none" xmlns="http://www.w3.org/2000/svg">
<path d="M507.962 381.559V379.481C507.962 379.085 507.666 378.788 507.27 378.788H502.622C502.226 378.788 501.93 379.085 501.93 379.481V381.559C490.161 383.044 481.062 393.139 481.062 405.313V448.961H482.447V405.313C482.447 393.931 490.952 384.529 501.93 383.044V385.221C492.04 386.706 484.326 395.218 484.326 405.61V407.293V449.06H485.711V407.986H489.963V449.06H491.348V407.986H492.04C492.238 407.986 492.535 407.887 492.633 407.689C493.524 406.402 495.007 405.214 496.886 404.324V449.06H498.271V403.829C500.051 403.235 502.128 402.839 504.204 402.74V449.06H505.589V402.74C507.666 402.839 509.743 403.235 511.523 403.829V449.06H512.907V404.423C513.006 404.423 513.006 404.423 513.006 404.522C513.402 404.72 513.797 404.917 514.193 405.115L514.292 405.214C514.688 405.412 514.984 405.709 515.38 405.907C515.479 406.006 515.479 406.006 515.578 406.105C515.874 406.303 516.171 406.6 516.369 406.798C516.665 407.095 516.962 407.392 517.16 407.788C517.259 407.986 517.556 408.085 517.753 408.085H518.446V449.159H519.83V408.085H524.083V449.159H525.467V407.392V405.709C525.467 395.416 517.852 386.805 507.864 385.32V383.143C518.841 384.628 527.346 394.03 527.346 405.412V449.06H528.731V405.412C528.929 393.139 519.731 383.044 507.962 381.559ZM503.413 382.846V381.46V380.273H506.578V381.46V382.846V384.925C506.083 384.925 505.49 384.826 504.996 384.826C504.501 384.826 503.908 384.826 503.413 384.925V382.846V382.846ZM524.182 405.511V406.402H518.248C518.05 406.105 517.753 405.808 517.457 405.511C517.358 405.412 517.358 405.313 517.259 405.214C517.061 405.016 516.764 404.818 516.567 404.621C516.369 404.423 516.171 404.324 515.973 404.126C515.775 404.027 515.578 403.829 515.281 403.73C514.984 403.532 514.687 403.334 514.391 403.235C514.193 403.136 513.995 403.037 513.797 402.938C513.402 402.74 513.105 402.641 512.71 402.443H512.611C510.336 401.552 507.765 401.057 505.094 401.057C502.424 401.057 499.754 401.552 497.479 402.443C495.007 403.433 493.128 404.72 491.842 406.402H485.908V405.511C485.908 395.911 492.93 387.993 502.029 386.607C503.018 386.409 504.007 386.31 505.094 386.31C506.083 386.31 507.171 386.409 508.16 386.607C517.16 387.993 524.182 395.911 524.182 405.511Z" fill="#0E1344" stroke="#0E1344" stroke-width="2"/>
<path d="M425.978 381.559V379.481C425.978 379.085 425.681 378.788 425.286 378.788H420.638C420.242 378.788 419.945 379.085 419.945 379.481V381.559C408.177 383.044 399.078 393.139 399.078 405.313V448.961H400.463V405.313C400.463 393.931 408.968 384.529 419.945 383.044V385.221C410.056 386.706 402.342 395.218 402.342 405.61V407.293V449.06H403.726V407.986H407.979V449.06H409.363V407.986H410.056C410.253 407.986 410.55 407.887 410.649 407.689C411.539 406.402 413.023 405.214 414.902 404.324V449.06H416.286V403.829C418.066 403.235 420.143 402.839 422.22 402.74V449.06H423.605V402.74C425.681 402.839 427.758 403.235 429.538 403.829V449.06H430.923V404.423C431.022 404.423 431.022 404.423 431.022 404.522C431.417 404.72 431.813 404.917 432.209 405.115L432.307 405.214C432.703 405.412 433 405.709 433.395 405.907C433.494 406.006 433.494 406.006 433.593 406.105C433.89 406.303 434.187 406.6 434.384 406.798C434.681 407.095 434.978 407.392 435.176 407.788C435.274 407.986 435.571 408.085 435.769 408.085H436.461V449.159H437.846V408.085H442.098V449.159H443.483V407.392V405.709C443.483 395.416 435.868 386.805 425.879 385.32V383.143C436.857 384.628 445.362 394.03 445.362 405.412V449.06H446.746V405.412C446.845 393.139 437.747 383.044 425.978 381.559ZM421.33 382.846V381.46V380.273H424.495V381.46V382.846V384.925C424 384.925 423.407 384.826 422.912 384.826C422.418 384.826 421.824 384.826 421.33 384.925V382.846V382.846ZM442.098 405.511V406.402H436.164C435.967 406.105 435.67 405.808 435.373 405.511C435.274 405.412 435.274 405.313 435.176 405.214C434.978 405.016 434.681 404.818 434.483 404.621C434.285 404.423 434.088 404.324 433.89 404.126C433.692 404.027 433.494 403.829 433.198 403.73C432.901 403.532 432.604 403.334 432.307 403.235C432.11 403.136 431.912 403.037 431.714 402.938C431.319 402.74 431.022 402.641 430.626 402.443H430.527C428.253 401.552 425.681 401.057 423.011 401.057C420.341 401.057 417.671 401.552 415.396 402.443C412.924 403.433 411.045 404.72 409.759 406.402H403.825V405.511C403.825 395.911 410.847 387.993 419.945 386.607C420.934 386.409 421.923 386.31 423.011 386.31C424 386.31 425.088 386.409 426.077 386.607C435.077 387.993 442.098 395.911 442.098 405.511Z" fill="#0E1344" stroke="#0E1344" stroke-width="2"/>
<path d="M565.818 405.314V424.614C566.313 423.624 566.807 422.535 567.203 421.546V405.215C567.203 395.713 573.038 387.696 581.345 384.331C581.543 383.737 581.642 383.143 581.84 382.648C572.543 386.014 565.818 394.822 565.818 405.314Z" fill="#0E1344" stroke="#0E1344" stroke-width="2"/>
<path d="M38.8953 338.9V348.798H7.84167C7.94057 349.292 8.03946 349.787 8.13836 350.183H38.9942V438.469C39.4887 439.36 39.8843 440.251 40.3788 441.141V350.183V348.798V342.463H57.5869V348.798V350.183V448.861H58.9714V350.183H121.178V448.861H122.562V350.183V348.798V342.463H139.77V348.798V350.183V448.861H141.155V350.183H206.328V448.861H207.811V350.183H231.25V448.861H232.635V350.183H243.315V448.861H244.7V350.183V348.798V345.037C244.7 317.621 265.271 294.955 291.775 291.59V298.518C268.732 301.785 251.029 321.58 251.029 345.531V348.798V349.391V350.183V448.861H252.414V350.183H264.282V448.861H265.666V350.183V350.084H268.237C268.435 350.084 268.732 349.985 268.831 349.787C269.029 349.49 269.325 349.095 269.622 348.798C272.094 345.63 275.853 342.958 280.501 341.078V348.798V350.183V448.861H281.885V350.183V348.798V340.484C286.632 338.702 292.072 337.712 297.709 337.613V348.798V350.183V448.861H299.093V350.183V348.798V337.613C311.06 337.811 321.939 342.067 327.18 348.798C327.477 349.095 327.675 349.49 327.971 349.787C328.07 349.985 328.367 350.084 328.565 350.084H344.388V350.183V448.861H345.773V350.183V349.391V348.798V345.531C345.773 321.58 328.07 301.785 305.027 298.518V291.59C331.532 294.856 352.102 317.621 352.102 345.037V348.798V350.183V448.861H353.487V350.183H362.981V448.861H364.365V350.183H387.804V448.861H389.189V350.183H453.472V448.861H454.856V350.183V348.798V342.463H472.064V348.798V350.183V448.861H473.449V350.183H536.347V448.861H537.732V350.183V348.798V342.463H555.632V348.798V350.183V444.111C556.127 443.319 556.621 442.428 557.017 441.636V350.183H589.554C589.653 349.688 589.752 349.194 589.85 348.798H557.116V338.9H591.433C591.532 338.405 591.532 337.91 591.631 337.514H557.116V333.061C557.116 332.665 556.819 332.368 556.423 332.368H537.732C537.336 332.368 537.04 332.665 537.04 333.061V337.514H474.141V333.061C474.141 332.665 473.844 332.368 473.449 332.368H454.757C454.362 332.368 454.065 332.665 454.065 333.061V337.514H445.263C414.704 337.514 389.881 312.672 389.881 282.089C389.881 281.99 389.881 281.891 389.782 281.792V266.648V262.491V235.372C389.782 234.976 389.485 234.68 389.09 234.68H364.168H353.289C337.96 234.68 325.598 222.209 325.598 206.967V203.304H330.147H335.883C336.279 203.304 336.575 203.008 336.575 202.612C336.575 181.332 319.268 164.11 298.104 164.11C276.842 164.11 259.633 181.431 259.633 202.612C259.633 203.008 259.93 203.304 260.326 203.304H266.062H270.611V206.967C270.611 222.308 258.15 234.68 242.92 234.68H232.14H207.218H207.119C206.724 234.68 206.427 234.976 206.427 235.372V282.187C206.427 312.771 181.604 337.613 151.045 337.613H141.254V333.16C141.254 332.764 140.957 332.467 140.561 332.467H121.87C121.474 332.467 121.178 332.764 121.178 333.16V337.613H58.9714V333.16C58.9714 332.764 58.6747 332.467 58.2791 332.467H39.5876C39.192 332.467 38.8953 332.764 38.8953 333.16V337.613H6.06152C6.16042 338.108 6.16042 338.603 6.25932 338.999H38.8953V338.9ZM538.424 338.9V337.514V333.753H555.632V337.514V338.9V340.979H538.424V338.9ZM474.141 338.9H537.04V348.798H474.141V338.9ZM455.45 338.9V337.514V333.753H472.658V337.514V338.9V340.979H455.45V338.9ZM389.782 338.504C389.881 338.405 389.881 338.306 389.881 338.207V294.757C395.617 319.996 418.264 338.999 445.263 338.999H454.065V348.897H389.782V338.504ZM364.86 235.867H388.298V261.601H364.86V235.867ZM364.86 263.085H388.298V265.857H364.86V263.085ZM364.86 267.242H388.298V348.798H364.86V267.242ZM344.784 345.531V348.699H329.356C323.916 341.078 311.95 336.228 298.797 336.228C292.665 336.228 286.632 337.317 281.292 339.395C275.556 341.671 271.007 344.839 268.237 348.798H252.81V345.63C252.81 322.47 269.919 303.269 292.171 300.102C292.665 300.003 293.16 300.003 293.555 299.904C295.236 299.706 297.016 299.607 298.797 299.607C300.577 299.607 302.357 299.706 304.038 299.904C304.533 300.003 305.027 300.003 305.423 300.102C327.675 303.17 344.784 322.371 344.784 345.531ZM293.456 298.32V291.392V290.006V286.443H303.939V290.006V291.392V298.32C302.258 298.122 300.478 298.023 298.698 298.023C296.918 298.023 295.236 298.122 293.456 298.32ZM265.369 201.622H261.018C261.414 181.53 277.83 165.199 298.104 165.199C318.279 165.199 334.795 181.431 335.191 201.622H330.839C330.444 183.905 315.906 169.554 298.104 169.554C280.303 169.653 265.765 183.905 265.369 201.622ZM266.754 201.622C267.15 184.697 280.995 171.039 298.005 171.039C315.016 171.039 328.96 184.697 329.257 201.622H314.323C314.62 200.434 314.719 199.246 314.719 198.059C314.719 188.953 307.302 181.431 298.104 181.431C289.006 181.431 281.49 188.854 281.49 198.059C281.49 199.246 281.589 200.434 281.885 201.622H266.754ZM313.236 198.059C313.236 206.472 306.412 213.202 298.104 213.202C289.698 213.202 282.973 206.373 282.973 198.059C282.973 189.646 289.797 182.916 298.104 182.916C306.412 182.916 313.236 189.745 313.236 198.059ZM271.996 206.67V203.106H282.281C284.457 209.738 290.687 214.588 298.104 214.588C305.423 214.588 311.752 209.738 313.928 203.106H324.213V206.67C324.213 219.635 332.718 230.622 344.388 234.383H252.018C263.589 230.622 271.996 219.635 271.996 206.67ZM232.832 235.867H363.475V261.601H232.832V235.867ZM232.832 263.085H363.475V265.857H232.832V263.085ZM232.832 267.242H363.475V348.798H353.981V345.037C353.981 316.829 332.718 293.471 305.423 290.204V285.751C305.423 285.355 305.126 285.058 304.73 285.058H292.764C292.368 285.058 292.072 285.355 292.072 285.751V290.204C264.776 293.471 243.513 316.829 243.513 345.037V348.798H232.832V267.242V267.242ZM207.91 235.867H231.349V261.601H207.91V235.867ZM207.91 263.085H231.349V265.857H207.91V263.085ZM207.91 267.242H231.349V348.798H207.91V267.242ZM141.254 338.9H150.946C177.945 338.9 200.592 319.996 206.328 294.658V338.108V348.699H141.254V338.9ZM122.562 338.9V337.514V333.753H139.77V337.514V338.9V340.979H122.562V338.9ZM58.9714 338.9H121.178V348.798H58.9714V338.9ZM40.2799 338.9V337.514V333.753H57.488V337.514V338.9V340.979H40.2799V338.9Z" fill="#0E1344" stroke="#0E1344" stroke-width="2"/>
<path d="M569.081 405.511V407.194V417.388C569.576 416.3 570.07 415.31 570.466 414.221V407.887H573.037C573.235 407.392 573.433 406.897 573.63 406.501H570.466V405.61C570.466 398.583 574.224 392.546 579.861 389.181C580.059 388.488 580.256 387.894 580.553 387.201C573.828 390.566 569.081 397.495 569.081 405.511Z" fill="#0E1344" stroke="#0E1344" stroke-width="2"/>
<path d="M28.5109 405.512C28.5109 397.495 23.8627 390.566 17.1377 387.201C17.3355 387.894 17.6322 388.488 17.83 389.181C23.3682 392.546 27.1263 398.583 27.1263 405.512V406.402H24.0605C24.2583 406.897 24.4561 407.392 24.6539 407.788H27.1263V413.924C27.6208 415.013 28.1153 416.102 28.5109 417.191V407.095V405.512Z" fill="#0E1344" stroke="#0E1344" stroke-width="2"/>
<path d="M15.8525 382.747C16.0503 383.341 16.1492 383.935 16.347 384.43C24.5555 387.795 30.3904 395.812 30.3904 405.214V421.347C30.8849 422.337 31.2805 423.426 31.775 424.416V405.214C31.775 394.921 25.1489 386.013 15.8525 382.747Z" fill="#0E1344" stroke="#0E1344" stroke-width="2"/>
<path d="M177.647 381.559V379.481C177.647 379.085 177.35 378.788 176.955 378.788H172.307C171.911 378.788 171.614 379.085 171.614 379.481V381.559C159.846 383.044 150.747 393.139 150.747 405.313V448.961H152.132V405.313C152.132 393.931 160.637 384.529 171.614 383.044V385.221C161.725 386.706 154.011 395.218 154.011 405.61V407.293V449.06H155.395V407.986H159.648V449.06H161.032V407.986H161.725C161.922 407.986 162.219 407.887 162.318 407.689C163.208 406.402 164.692 405.214 166.571 404.324V449.06H167.955V403.829C169.735 403.235 171.812 402.839 173.889 402.74V449.06H175.274V402.74C177.35 402.839 179.427 403.235 181.207 403.829V449.06H182.592V404.423C182.691 404.423 182.691 404.423 182.691 404.522C183.086 404.72 183.482 404.917 183.878 405.115L183.976 405.214C184.372 405.412 184.669 405.709 185.064 405.907C185.163 406.006 185.163 406.006 185.262 406.105C185.559 406.303 185.855 406.6 186.053 406.798C186.35 407.095 186.647 407.392 186.844 407.788C186.943 407.986 187.24 408.085 187.438 408.085H188.13V449.159H189.515V408.085H193.767V449.159H195.152V407.392V405.709C195.152 395.416 187.537 386.805 177.548 385.32V383.143C188.526 384.628 197.031 394.03 197.031 405.412V449.06H198.415V405.412C198.613 393.139 189.416 383.044 177.647 381.559ZM173.098 382.846V381.46V380.273H176.262V381.46V382.846V384.925C175.768 384.925 175.175 384.826 174.68 384.826C174.186 384.826 173.592 384.826 173.098 384.925V382.846ZM193.866 405.511V406.402H187.932C187.735 406.105 187.438 405.808 187.141 405.511C187.042 405.412 187.042 405.313 186.943 405.214C186.746 405.016 186.449 404.818 186.251 404.621C186.053 404.423 185.855 404.324 185.658 404.126C185.46 404.027 185.262 403.829 184.965 403.73C184.669 403.532 184.372 403.334 184.075 403.235C183.878 403.136 183.68 403.037 183.482 402.938C183.086 402.74 182.79 402.641 182.394 402.443H182.295C180.021 401.552 177.449 401.057 174.779 401.057C172.109 401.057 169.439 401.552 167.164 402.443C164.692 403.433 162.812 404.72 161.527 406.402H155.593V405.511C155.593 395.911 162.615 387.993 171.713 386.607C172.702 386.409 173.691 386.31 174.779 386.31C175.768 386.31 176.856 386.409 177.845 386.607C186.844 387.993 193.866 395.911 193.866 405.511Z" fill="#0E1344" stroke="#0E1344" stroke-width="2"/>
<path d="M92.9918 381.559V379.481C92.9918 379.085 92.6951 378.788 92.2995 378.788H87.6514C87.2558 378.788 86.9591 379.085 86.9591 379.481V381.559C75.1903 383.044 66.0918 393.139 66.0918 405.313V448.961H67.4764V405.313C67.4764 393.931 75.9815 384.529 86.9591 383.044V385.221C77.0694 386.706 69.3554 395.218 69.3554 405.61V407.293V449.06H70.74V407.986H74.9925V449.06H76.3771V407.986H77.0694C77.2672 407.986 77.5639 407.887 77.6628 407.689C78.5528 406.402 80.0363 405.214 81.9153 404.324V449.06H83.2999V403.829C85.08 403.235 87.1569 402.839 89.2337 402.74V449.06H90.6183V402.74C92.6951 402.839 94.772 403.235 96.5521 403.829V449.06H97.9367V404.423C98.0355 404.423 98.0356 404.423 98.0356 404.522C98.4311 404.72 98.8267 404.917 99.2223 405.115C99.2223 405.115 99.3212 405.115 99.3212 405.214C99.7168 405.412 100.013 405.709 100.409 405.907C100.508 406.006 100.508 406.006 100.607 406.105C100.904 406.303 101.2 406.6 101.398 406.798C101.695 407.095 101.991 407.392 102.189 407.788C102.288 407.986 102.585 408.085 102.783 408.085H103.475V449.159H104.859V408.085H109.112V449.159H110.497V407.392V405.709C110.497 395.416 102.882 386.805 92.8929 385.32V383.143C103.87 384.628 112.376 394.03 112.376 405.412V449.06H113.76V405.412C113.859 393.139 104.662 383.044 92.9918 381.559ZM88.3436 382.846V381.46V380.273H91.5083V381.46V382.846V384.925C91.0139 384.925 90.4205 384.826 89.926 384.826C89.4315 384.826 88.8381 384.826 88.3436 384.925V382.846V382.846ZM109.112 405.511V406.402H103.178C102.98 406.105 102.684 405.808 102.387 405.511C102.288 405.412 102.288 405.313 102.189 405.214C101.991 405.016 101.695 404.818 101.497 404.621C101.299 404.423 101.101 404.324 100.904 404.126C100.706 404.027 100.508 403.829 100.211 403.73C99.9146 403.532 99.6179 403.334 99.3212 403.235C99.1234 403.136 98.9256 403.037 98.7278 402.938C98.3322 402.74 98.0356 402.641 97.64 402.443H97.5411C95.2664 401.552 92.6951 401.057 90.0249 401.057C87.3547 401.057 84.6844 401.552 82.4098 402.443C79.9374 403.433 78.0583 404.72 76.7727 406.402H70.8389V405.511C70.8389 395.911 77.8605 387.993 86.9591 386.607C87.948 386.409 88.937 386.31 90.0249 386.31C91.1128 386.31 92.1017 386.409 93.0907 386.607C102.09 387.993 109.112 395.911 109.112 405.511Z" fill="#0E1344" stroke="#0E1344" stroke-width="2"/>
<path d="M298.104 195.684C298.5 195.684 298.797 195.387 298.797 194.992V185.688C298.797 185.292 298.5 184.995 298.104 184.995C297.709 184.995 297.412 185.292 297.412 185.688V194.992C297.412 195.289 297.709 195.684 298.104 195.684Z" fill="#0E1344" stroke="#0E1344" stroke-width="2"/>
<path d="M307.203 197.069H300.973C300.577 197.069 300.28 197.366 300.28 197.762C300.28 198.158 300.577 198.455 300.973 198.455H307.203C307.599 198.455 307.895 198.158 307.895 197.762C307.895 197.366 307.599 197.069 307.203 197.069Z" fill="#0E1344" stroke="#0E1344" stroke-width="2"/>
<path d="M298.104 197.069C297.709 197.069 297.412 197.366 297.412 197.762C297.412 198.158 297.709 198.455 298.104 198.455C298.5 198.455 298.797 198.158 298.797 197.762C298.797 197.366 298.5 197.069 298.104 197.069Z" fill="#0E1344" stroke="#0E1344" stroke-width="2"/>
<path d="M533.875 480.038H529.424H68.3664H63.916L66.6851 483.502C74.0035 492.608 81.8164 501.219 89.9259 509.236H92.3983C83.6954 500.823 75.487 491.816 67.9708 482.413L67.3774 481.721H530.215L529.622 482.413C522.007 491.816 513.798 500.823 505.194 509.236H507.667C515.875 501.12 523.589 492.608 530.908 483.502L533.875 480.038Z" fill="#0E1344" stroke="#0E1344" stroke-width="2"/>
<path d="M298.796 2.68257C461.976 2.68257 594.202 135.012 594.202 298.222C594.202 353.252 579.169 404.719 552.962 448.862H44.7299C18.6211 404.818 3.48984 353.252 3.48984 298.222C3.48984 135.012 135.715 2.68257 298.796 2.68257ZM298.796 1C135.023 1 1.80859 134.319 1.80859 298.222C1.80859 351.569 16.1487 403.927 43.3453 449.752L43.8398 450.544H44.8288H552.962H553.951L554.445 449.752C581.543 404.026 595.982 351.569 595.982 298.222C595.883 134.319 462.57 1 298.796 1Z" fill="#0E1344" stroke="#0E1344" stroke-width="2"/>
<path d="M289.005 248.338C289.4 247.745 289.598 247.052 289.598 246.458C289.598 245.765 289.302 245.468 288.609 245.468C287.324 245.468 286.335 246.359 286.335 247.448C286.335 247.547 286.236 247.745 286.137 247.745C285.939 247.745 285.939 247.646 285.939 247.448C285.939 246.062 287.225 245.072 288.807 245.072C290.587 245.072 291.972 246.062 291.972 247.646C291.972 248.536 291.675 249.229 291.181 250.021L288.609 254.178H292.071C292.17 254.178 292.269 254.178 292.269 254.376C292.269 254.475 292.17 254.574 292.071 254.574H285.543C285.445 254.574 285.346 254.475 285.346 254.376C285.346 254.277 285.346 254.277 285.445 254.079L289.005 248.338Z" fill="#0E1344"/>
<path d="M300.675 249.921C300.675 252.791 299.093 254.771 297.313 254.771C295.335 254.771 293.258 253.088 293.258 249.921C293.258 246.754 295.335 245.071 297.313 245.071C299.093 245.17 300.675 247.051 300.675 249.921ZM300.181 249.921C300.181 247.348 298.895 245.467 297.411 245.467C296.818 245.467 296.225 246.16 296.225 249.921C296.225 253.682 296.818 254.375 297.411 254.375C298.895 254.375 300.181 252.593 300.181 249.921Z" fill="#0E1344"/>
<path d="M305.422 245.269C305.521 245.17 305.719 245.071 305.916 245.071C306.114 245.071 306.213 245.17 306.213 245.368V254.177H307.499C307.598 254.177 307.696 254.276 307.696 254.375C307.696 254.474 307.598 254.573 307.499 254.573H302.059C301.96 254.573 301.862 254.474 301.862 254.375C301.862 254.276 301.96 254.177 302.059 254.177H303.345V247.051C302.851 247.348 302.356 247.546 302.059 247.744C301.96 247.744 301.862 247.744 301.763 247.744C301.664 247.645 301.763 247.546 301.862 247.447C302.851 246.952 304.433 246.061 305.422 245.269Z" fill="#0E1344"/>
<path d="M312.938 250.811C312.542 251.306 311.85 251.702 311.059 251.702C309.674 251.702 308.389 250.614 308.389 248.832C308.389 246.655 310.07 245.17 312.246 245.17C314.224 245.17 316.004 246.457 316.004 249.228C316.004 252.791 312.839 254.77 309.971 254.77C309.872 254.77 309.773 254.77 309.773 254.573C309.773 254.474 309.872 254.375 309.971 254.375C311.85 254.276 312.74 253.187 312.938 250.811ZM313.037 248.436C313.037 246.16 312.74 245.467 311.85 245.467C310.268 245.467 308.883 246.852 308.883 248.832C308.883 250.416 309.872 251.306 311.059 251.306C312.74 251.306 313.037 250.02 313.037 248.436Z" fill="#0E1344"/>
<path d="M298.795 503.793C344.949 503.793 382.363 466.349 382.363 420.159C382.363 373.97 344.949 336.525 298.795 336.525C252.642 336.525 215.228 373.97 215.228 420.159C215.228 466.349 252.642 503.793 298.795 503.793Z" fill="white"/>
<path d="M226.204 420.16C226.204 448.962 242.918 473.804 267.148 485.582L232.534 390.566C228.479 399.672 226.204 409.669 226.204 420.16Z" fill="#0E1344"/>
<path d="M347.849 416.497C347.849 407.49 344.585 401.255 341.816 396.504C338.157 390.565 334.695 385.419 334.695 379.48C334.695 372.849 339.739 366.614 346.86 366.614C347.156 366.614 347.453 366.614 347.849 366.713C334.893 354.836 317.685 347.61 298.796 347.61C273.478 347.61 251.127 360.675 238.172 380.371C239.853 380.47 241.435 380.47 242.82 380.47C250.435 380.47 262.204 379.579 262.204 379.579C266.16 379.381 266.555 385.122 262.698 385.518C262.698 385.518 258.742 386.013 254.391 386.211L280.796 464.896L296.719 417.19L285.445 386.211C281.489 386.013 277.83 385.518 277.83 385.518C273.874 385.32 274.368 379.282 278.324 379.579C278.324 379.579 290.291 380.47 297.411 380.47C305.026 380.47 316.795 379.579 316.795 379.579C320.751 379.381 321.146 385.122 317.289 385.518C317.289 385.518 313.334 386.013 308.982 386.211L335.091 464.203L342.31 439.954C345.475 429.957 347.849 422.732 347.849 416.497Z" fill="#0E1344"/>
<path d="M300.082 426.593L278.324 489.937C284.851 491.817 291.675 492.906 298.796 492.906C307.202 492.906 315.312 491.421 322.927 488.749C322.729 488.452 322.531 488.155 322.432 487.759L300.082 426.593Z" fill="#0E1344"/>
<path d="M362.585 385.32C362.881 387.597 363.079 390.071 363.079 392.743C363.079 400.068 361.695 408.382 357.541 418.774L335.289 483.009C356.849 470.439 371.386 446.982 371.386 420.16C371.485 407.59 368.222 395.713 362.585 385.32Z" fill="#0E1344"/>
<path d="M298.795 335.536C252.116 335.536 214.14 373.543 214.14 420.259C214.14 466.975 252.116 504.981 298.795 504.981C345.475 504.981 383.451 466.975 383.451 420.259C383.451 373.444 345.475 335.536 298.795 335.536ZM298.795 501.022C254.292 501.022 217.997 464.797 217.997 420.16C217.997 375.621 254.193 339.297 298.795 339.297C343.299 339.297 379.594 375.522 379.594 420.16C379.594 464.797 343.398 501.022 298.795 501.022Z" fill="#0E1344"/>
<path d="M62.0369 220.428C61.1468 219.637 60.8501 218.548 61.1468 217.459C61.4435 216.37 61.938 215.975 63.4215 215.777L98.3321 212.807L72.2233 193.012L70.0476 199.347C69.7509 200.04 69.2564 200.534 68.5641 200.238C67.8718 200.04 67.674 199.347 67.9707 198.555L72.9156 184.402C73.2123 183.709 73.8057 183.214 74.399 183.511C75.0913 183.808 75.2891 184.402 74.9924 185.193L73.2123 190.34L115.342 222.408C116.331 223.101 116.727 224.288 116.43 225.179C116.134 226.169 115.145 226.763 113.76 226.862L77.6626 230.623L104.068 254.674C105.057 255.664 105.354 256.752 105.057 257.643C104.76 258.534 103.87 259.128 102.486 259.128L48.6858 260.216L46.9057 265.363C46.609 266.155 46.1145 266.551 45.4222 266.254C44.7299 266.056 44.5321 265.363 44.8288 264.571L55.3119 234.681C55.6086 233.988 56.202 233.493 56.7954 233.79C57.5865 234.087 57.6854 234.681 57.3887 235.473L54.7185 243.094L87.0579 242.896L62.0369 220.428Z" fill="#0E1344"/>
<path d="M149.957 134.519C162.319 146 162.319 162.33 153.022 172.327C143.429 182.719 128.001 187.965 113.167 174.108C99.0246 160.945 102.486 144.515 111.98 134.222C121.375 124.225 137.496 123.037 149.957 134.519ZM147.979 136.696C136.902 126.403 122.364 126.502 113.958 135.508C110.299 139.467 110.892 145.604 126.32 159.955C142.638 175.098 147.979 174.405 151.638 170.446C160.044 161.44 159.055 146.89 147.979 136.696Z" fill="#0E1344"/>
<path d="M182.89 143.129C182.197 143.524 181.505 143.426 181.11 142.733C180.714 142.04 181.11 141.446 181.802 141.05L187.538 138.081L164.89 94.6309L159.154 97.6001C158.462 97.996 157.77 97.897 157.374 97.2042C157.078 96.6104 157.374 95.9175 158.067 95.5216L181.802 83.1498C194.362 76.6174 205.636 78.0031 211.57 89.4842C216.218 98.4909 213.35 107.3 206.823 113.04C208.9 113.04 210.878 113.535 212.658 114.327L217.8 116.603C221.163 118.088 224.031 118.781 227.492 116.999C228.976 116.207 229.668 116.306 230.064 117.098C230.459 117.791 230.163 118.484 228.58 119.276C224.426 121.453 221.064 121.354 216.91 119.375L211.57 116.9C208.207 115.416 205.142 115.02 201.779 116.801C201.186 117.098 200.395 117.197 199.999 116.405C199.603 115.614 200.098 115.02 200.79 114.624C210.482 109.576 213.943 100.074 209.097 90.7708C203.658 80.2795 194.263 79.2898 182.989 85.2282L180.318 86.6139L202.966 130.064L208.702 127.095C209.394 126.699 210.086 126.798 210.482 127.491C210.779 128.084 210.482 128.777 209.79 129.173L182.89 143.129Z" fill="#0E1344"/>
<path d="M243.908 111.655L250.337 110.764L243.612 62.1671L237.183 63.0579C236.392 63.1569 235.799 62.8599 235.7 62.0681C235.601 61.4743 236.096 60.8804 236.887 60.7815L266.655 56.7235C281.39 54.645 293.555 63.0579 295.829 79.3887C298.104 95.7196 287.621 107.894 273.973 109.774L244.205 113.832C243.414 113.931 242.821 113.535 242.722 112.842C242.623 112.149 243.117 111.754 243.908 111.655ZM292.961 79.7846C290.983 65.2353 280.896 57.1194 267.446 58.9009L260.622 59.8907L267.347 108.487L274.171 107.498C286.533 105.716 294.939 94.235 292.961 79.7846Z" fill="#0E1344"/>
<path d="M319.565 82.4569C323.52 62.1671 339.641 56.5255 353.783 59.2968C362.783 61.0783 365.255 67.1158 365.255 67.1158L365.848 64.0476C365.947 63.2558 366.541 62.7609 367.332 62.9589C368.123 63.1568 368.519 63.7507 368.321 64.5425L365.354 79.9825C365.156 80.7743 364.662 81.2692 363.87 81.0713C363.079 80.8733 362.684 80.2795 362.882 79.4877L364.365 71.7676C364.761 69.4912 361.2 63.1568 353.783 61.6722C347.948 60.5835 342.707 64.2455 338.652 84.9313C334.399 106.805 338.058 111.061 343.893 112.149C352.695 113.832 358.926 107.992 361.2 103.44C361.596 102.747 361.991 102.153 362.783 102.351C363.574 102.549 363.87 103.044 363.772 103.835C363.673 104.33 363.475 104.924 363.277 105.32C360.409 110.764 353.19 116.405 342.212 114.228C331.927 112.248 315.411 104.132 319.565 82.4569Z" fill="#0E1344"/>
<path d="M427.955 89.7812L421.032 145.009L425.285 147.385C425.977 147.78 426.274 148.473 425.878 149.067C425.483 149.661 424.791 149.76 424.098 149.364L397.891 134.32C397.198 133.924 396.902 133.231 397.297 132.637C397.693 132.043 398.385 131.944 399.077 132.34L405.605 136.101L406.989 127.293L389.385 117.098L382.364 122.641L388.199 126.006C388.891 126.402 389.188 127.095 388.792 127.689C388.396 128.282 387.704 128.381 387.012 127.985L374.551 120.76C373.859 120.364 373.562 119.672 373.957 119.078C374.353 118.484 375.045 118.385 375.738 118.781L379.99 121.156L424.197 87.3068C425.285 86.515 426.175 86.614 427.065 87.1089C427.56 87.7027 428.153 88.6925 427.955 89.7812ZM391.264 115.713L407.385 125.016L410.549 101.163L391.264 115.713Z" fill="#0E1344"/>
<path d="M464.547 193.21C465.14 192.814 465.833 193.012 466.228 193.606L470.085 198.753L504.106 173.118L456.932 183.808C456.437 183.907 455.844 183.61 455.646 183.214C455.35 182.818 455.152 182.323 455.35 181.729L477.404 138.378L443.779 163.716L447.734 169.06C448.229 169.654 448.229 170.446 447.636 170.842C447.042 171.238 446.35 171.04 445.954 170.446L436.361 157.678C435.867 157.084 435.867 156.293 436.46 155.897C437.054 155.501 437.746 155.699 438.141 156.293L442.097 161.439L481.162 131.945L477.206 126.798C476.711 126.204 476.711 125.412 477.305 125.017C477.898 124.621 478.59 124.819 478.986 125.412L492.337 143.129C492.93 143.921 493.029 144.416 492.733 145.207L477.502 176.286L510.534 168.862C511.226 168.763 511.82 168.862 512.215 169.357L525.27 186.777C525.764 187.371 525.764 188.163 525.171 188.558C524.577 188.954 523.885 188.756 523.49 188.163L519.534 183.016L480.469 212.411L484.425 217.558C484.92 218.152 484.92 218.944 484.326 219.34C483.733 219.736 483.041 219.538 482.645 218.944L464.448 194.992C463.954 194.299 463.954 193.606 464.547 193.21Z" fill="#0E1344"/>
<path d="M510.041 256.554C510.931 256.356 511.425 256.95 511.623 257.643C514.392 268.134 523.59 273.38 533.479 270.708C543.567 268.035 547.028 260.513 544.358 250.418L542.677 244.182L495.404 256.851L497.085 263.185C497.283 263.977 496.986 264.571 496.294 264.769C495.602 264.967 495.008 264.472 494.811 263.779L486.998 234.582C486.8 233.79 487.097 233.196 487.789 232.998C488.481 232.8 489.074 233.295 489.272 233.988L490.954 240.223L538.226 227.554L536.545 221.319C536.347 220.527 536.644 219.933 537.336 219.735C538.029 219.537 538.622 220.032 538.82 220.725L546.732 250.22C549.6 261.008 545.248 270.51 534.271 273.479C523.194 276.448 512.513 270.114 509.249 258.237C509.052 257.544 509.151 256.851 510.041 256.554Z" fill="#0E1344"/>
<path d="M219.58 549.222V570.106L225.118 566.84C225.811 566.543 226.503 566.543 226.8 567.137C227.096 567.731 226.898 568.325 226.206 568.72L219.58 572.58V596.433H237.579V585.942C237.579 585.15 238.074 584.457 238.865 584.457C239.656 584.457 240.151 585.051 240.151 585.942V597.423C240.151 598.215 239.755 598.71 238.865 598.71H196.735C195.944 598.71 195.449 598.314 195.449 597.621C195.449 596.928 196.043 596.532 196.735 596.532H202.965V582.28L198.218 585.051C197.526 585.447 196.834 585.348 196.537 584.754C196.24 584.161 196.438 583.468 197.13 583.171L202.965 579.806V549.222H196.735C195.944 549.222 195.449 548.826 195.449 548.134C195.449 547.441 196.043 547.045 196.735 547.045H225.811C226.602 547.045 227.096 547.441 227.096 548.134C227.096 548.826 226.503 549.222 225.811 549.222H219.58Z" fill="#0E1344"/>
<path d="M295.731 572.679C295.731 589.01 284.259 599.699 271.007 599.699C257.359 599.699 243.612 592.276 243.612 572.679C243.612 553.972 257.557 545.659 271.007 545.659C284.358 545.659 295.731 556.348 295.731 572.679ZM292.962 572.679C292.962 558.129 283.27 547.836 271.501 547.836C266.359 547.836 262.304 552.29 262.304 572.679C262.304 594.156 266.26 597.521 271.501 597.521C283.369 597.521 292.962 587.228 292.962 572.679ZM276.743 528.338C277.336 527.546 278.226 527.447 279.017 527.942C279.809 528.536 280.006 529.229 279.314 530.12L271.205 541.403C270.71 542.096 269.919 542.194 269.424 541.997C268.831 541.7 268.633 541.007 269.227 540.017L276.743 528.338Z" fill="#0E1344"/>
<path d="M301.566 596.532H307.796V549.222H301.566C300.775 549.222 300.28 548.925 300.28 548.134C300.28 547.54 300.874 547.045 301.566 547.045H330.543C344.982 547.045 355.465 556.645 355.465 572.58C355.465 588.416 343.894 598.809 330.543 598.809H301.566C300.775 598.809 300.28 598.314 300.28 597.72C300.28 596.829 300.775 596.532 301.566 596.532ZM352.696 572.482C352.696 558.229 344.191 549.123 331.037 549.123H324.312V596.433H331.037C343.103 596.532 352.696 586.635 352.696 572.482Z" fill="#0E1344"/>
<path d="M404.517 549.222L378.507 596.532H402.638V586.04C402.638 585.249 403.034 584.754 403.924 584.754C404.715 584.754 405.21 585.348 405.21 586.04V597.422C405.21 598.214 404.715 598.709 403.924 598.709H361.596C360.904 598.709 360.409 598.313 360.409 597.521C360.409 597.225 360.508 596.928 360.706 596.631L386.914 549.123H365.947V560.208C365.947 561 365.552 561.495 364.662 561.495C363.871 561.495 363.376 560.901 363.376 560.208V548.331C363.376 547.539 363.969 547.044 364.662 547.044H403.726C404.418 547.044 404.913 547.44 404.913 548.232C404.913 548.43 404.814 548.826 404.517 549.222ZM390.375 528.338C390.968 527.546 391.858 527.447 392.65 527.942C393.441 528.536 393.639 529.229 392.946 530.12L384.837 541.403C384.342 542.096 383.551 542.194 383.057 541.997C382.463 541.7 382.265 541.007 382.859 540.017L390.375 528.338Z" fill="#0E1344"/>
</svg>
