<svg width="704" height="200" viewBox="0 0 704 200" fill="none" xmlns="http://www.w3.org/2000/svg">
<g clip-path="url(#clip0)">
<path d="M114.761 22.6411L78.7158 43.0979L114.761 63.5547V22.6411Z" fill="#EE2B2A"/>
<path d="M0 50.0498L43.9959 75.0746L0 100.033V50.0498Z" fill="#FBE500"/>
<path d="M55.3262 0L91.371 20.4568L55.3262 40.9136V0Z" fill="#EE2B2A"/>
<path d="M75.0049 71.7646L111.05 92.2215L75.0049 112.678V71.7646Z" fill="#EE2B2A"/>
<path d="M0 100.033L43.9959 125.058L0 150.017V100.033Z" fill="#F89522"/>
<path d="M43.9961 125.058L88.0582 150.017L43.9961 175.042V125.058Z" fill="#642D80"/>
<path d="M43.9959 125.058L0 100.033L43.9959 75.0742V125.058Z" fill="#F8BA19"/>
<path d="M88.0582 200L43.9961 175.041L88.0582 150.017V200Z" fill="#925CA5"/>
<path d="M43.9959 175.042L0 150.017L43.9959 125.058V175.042Z" fill="#7A4B9E"/>
<path d="M176.116 50.0498L132.054 75.0746L176.116 100.033V50.0498Z" fill="#4AB749"/>
<path d="M176.116 100.033L132.054 125.058L176.116 150.017V100.033Z" fill="#0B9147"/>
<path d="M132.054 125.058L88.0586 150.017L132.054 175.042V125.058Z" fill="#035A8B"/>
<path d="M132.054 125.058L176.116 100.033L132.054 75.0742V125.058Z" fill="#056B38"/>
<path d="M88.0586 200L132.054 175.041L88.0586 150.017V200Z" fill="#2385B3"/>
<path d="M132.054 175.042L176.116 150.017L132.054 125.058V175.042Z" fill="#48B1E3"/>
<path d="M340.371 70.6387H374.362C379.331 70.6387 383.771 71.3007 387.746 72.691C391.655 74.0812 394.968 76.0673 397.751 78.5831C400.468 81.0988 402.588 84.1441 404.046 87.6529C405.503 91.1617 406.232 95.0677 406.232 99.3709V99.6357C406.232 104.469 405.371 108.706 403.648 112.347C401.926 115.988 399.54 119.033 396.492 121.483C393.444 123.932 389.866 125.786 385.825 126.978C381.717 128.235 377.344 128.831 372.705 128.831H358.791V153.724H340.504V70.6387H340.371ZM373.169 112.545C377.741 112.545 381.319 111.354 383.837 108.904C386.355 106.521 387.614 103.475 387.614 99.9667V99.7019C387.614 95.5973 386.288 92.4857 383.638 90.301C380.988 88.1825 377.343 87.1233 372.772 87.1233H358.659V112.545H373.169Z" fill="black"/>
<path d="M413.189 70.6387H440.886C447.379 70.6387 453.342 71.6979 458.776 73.7502C464.209 75.8687 468.847 78.7817 472.756 82.4891C476.665 86.1964 479.713 90.5658 481.834 95.5973C483.954 100.629 485.014 106.057 485.014 111.883V112.148C485.014 117.974 483.954 123.469 481.834 128.5C479.713 133.532 476.665 137.967 472.756 141.675C468.847 145.382 464.143 148.295 458.776 150.48C453.342 152.598 447.379 153.658 440.886 153.658H413.189V70.6387ZM440.886 148.096C446.65 148.096 451.885 147.17 456.589 145.316C461.227 143.462 465.203 140.947 468.449 137.703C471.696 134.459 474.214 130.685 476.003 126.382C477.792 122.079 478.653 117.378 478.653 112.413V112.148C478.653 107.249 477.792 102.615 476.003 98.2454C474.214 93.876 471.696 90.1024 468.449 86.7923C465.203 83.5483 461.227 80.9664 456.589 79.0465C451.885 77.1266 446.716 76.1997 440.886 76.1997H419.418V148.096H440.886Z" fill="black"/>
<path d="M497.14 70.6387H556.309V76.1997H503.302V109.103H550.942V114.664H503.302V148.096H556.905V153.658H497.14V70.6387Z" fill="black"/>
<path d="M595.932 154.85C589.306 154.85 583.277 153.724 577.91 151.54C572.543 149.355 567.375 145.979 562.405 141.543L566.447 136.909C568.766 139.027 571.019 140.881 573.272 142.404C575.525 143.926 577.844 145.184 580.229 146.177C582.614 147.17 585.066 147.898 587.716 148.428C590.3 148.958 593.149 149.223 596.264 149.223C599.378 149.223 602.227 148.825 604.811 147.965C607.395 147.104 609.648 145.979 611.437 144.522C613.226 143.066 614.683 141.344 615.744 139.292C616.738 137.306 617.268 135.055 617.268 132.738V132.473C617.268 130.288 616.936 128.302 616.274 126.515C615.611 124.794 614.352 123.205 612.563 121.748C610.774 120.292 608.389 119.034 605.407 117.908C602.426 116.783 598.516 115.724 593.746 114.731C588.776 113.738 584.469 112.48 580.892 111.089C577.314 109.699 574.398 108.11 572.145 106.257C569.893 104.403 568.236 102.218 567.242 99.7687C566.182 97.3192 565.718 94.5387 565.718 91.3609V91.0961C565.718 87.9846 566.381 85.1378 567.706 82.4897C569.031 79.8415 570.886 77.5244 573.272 75.5383C575.657 73.5522 578.44 72.0296 581.687 70.9041C584.933 69.7786 588.511 69.249 592.354 69.249C598.384 69.249 603.552 70.1097 607.991 71.7647C612.364 73.4198 616.671 75.9356 620.846 79.3781L616.936 84.211C612.961 80.8346 608.985 78.3851 605.01 76.9948C601.034 75.5383 596.727 74.8763 592.156 74.8763C589.041 74.8763 586.258 75.2735 583.807 76.1342C581.289 76.9948 579.169 78.1203 577.38 79.5105C575.591 80.967 574.266 82.6221 573.272 84.4758C572.344 86.3957 571.814 88.3818 571.814 90.5003V90.7651C571.814 92.9498 572.145 95.0021 572.808 96.7896C573.471 98.5771 574.729 100.166 576.518 101.622C578.307 103.079 580.759 104.403 583.939 105.595C587.12 106.786 591.162 107.912 596.065 108.905C605.739 110.891 612.696 113.671 616.936 117.246C621.243 120.821 623.363 125.72 623.363 131.811V132.076C623.363 135.386 622.701 138.431 621.309 141.278C619.918 144.059 617.996 146.508 615.611 148.428C613.226 150.414 610.31 151.937 606.931 153.062C603.685 154.32 599.974 154.85 595.932 154.85Z" fill="black"/>
<path d="M634.892 70.6387H641.054V125.19L693.995 70.6387H702.476L666.1 107.315L704 153.658H695.916L661.726 111.685L641.054 132.539V153.658H634.892V70.6387Z" fill="black"/>
<path d="M209.643 70.6388H229.255L246.482 126.845L265.101 70.374H280.805L299.423 126.845L316.651 70.6388H335.733L307.374 154.254H291.472L272.721 99.9669L253.97 154.254H238.068L209.643 70.6388Z" fill="black"/>
</g>
<defs>
<clipPath id="clip0">
<rect width="704" height="200" fill="white"/>
</clipPath>
</defs>
</svg>
